<svg version="1.2" xmlns="http://www.w3.org/2000/svg" viewBox="0 0 600 200" width="600" height="200">
	<title>cuotasimple</title>
	<style>
		.s0 { fill: #537ea8 } 
		.s1 { fill: #192c51 } 
		.s2 { fill: #fefefe } 
	</style>
	<g id="Capa 1">
		<g id="&lt;Group&gt;">
		</g>
		<g id="&lt;Group&gt;">
			<g id="&lt;Group&gt;">
				<g id="&lt;Group&gt;">
					<path id="&lt;Compound Path&gt;" class="s0" d="m248.2 56.3c0-16.2 12.5-27.7 30-27.7 11.3 0 20.2 4.9 24.1 13.7l-12.1 6.5c-2.9-5.1-7.2-7.4-12.1-7.4-7.9 0-14.1 5.5-14.1 14.9 0 9.4 6.2 14.9 14.1 14.9 4.9 0 9.2-2.2 12.1-7.4l12.1 6.6c-3.9 8.6-12.8 13.6-24.1 13.6-17.5 0-30-11.5-30-27.7z"/>
					<path id="&lt;Compound Path&gt;" class="s0" d="m363.5 29.4v53.8h-14.8v-6.4c-4.1 4.7-10.1 7.2-16.7 7.2-13.5 0-23-7.6-23-24.2v-30.4h15.6v28.1c0 9 4 13 10.9 13 7.2 0 12.4-4.6 12.4-14.5v-26.6z"/>
					<path id="&lt;Compound Path&gt;" fill-rule="evenodd" class="s0" d="m372.3 56.3c0-16.2 12.5-27.7 29.6-27.7 17.1 0 29.5 11.5 29.5 27.7 0 16.2-12.4 27.7-29.5 27.7-17.1 0-29.6-11.5-29.6-27.7zm43.3 0c0-9.3-5.9-14.9-13.7-14.9-7.8 0-13.8 5.6-13.8 14.9 0 9.3 6 14.9 13.8 14.9 7.8 0 13.7-5.6 13.7-14.9z"/>
					<path id="&lt;Compound Path&gt;" class="s0" d="m475.4 80.6c-3.2 2.3-7.9 3.4-12.7 3.4-12.7 0-20.1-6.5-20.1-19.3v-22.1h-8.3v-12h8.3v-13.1h15.6v13.1h13.4v12h-13.4v21.9c0 4.6 2.5 7.1 6.7 7.1 2.3 0 4.6-0.7 6.3-2z"/>
					<path id="&lt;Compound Path&gt;" fill-rule="evenodd" class="s0" d="m529.8 52.5v30.7h-14.6v-6.7c-2.9 4.9-8.5 7.5-16.4 7.5-12.6 0-20.1-7-20.1-16.3 0-9.5 6.7-16.1 23.1-16.1h12.4c0-6.7-4-10.6-12.4-10.6-5.7 0-11.6 1.9-15.5 5l-5.6-10.9c5.9-4.2 14.6-6.5 23.2-6.5 16.4 0 25.9 7.6 25.9 23.9zm-15.6 13.7v-5.5h-10.7c-7.3 0-9.6 2.7-9.6 6.3 0 3.9 3.3 6.5 8.8 6.5 5.2 0 9.7-2.4 11.5-7.3z"/>
					<path id="&lt;Compound Path&gt;" class="s1" d="m246.8 172.5l5.7-13c5 3.1 12.3 5 18.9 5 6.4 0 8.5-1.4 8.5-3.7 0-7.3-32 1-32-20.7 0-10.2 9.4-18 26.4-18 7.6 0 16 1.6 21.4 4.6l-5.7 12.9c-5.4-3-10.8-4-15.6-4-6.4 0-8.7 1.8-8.7 3.8 0 7.5 31.9-0.6 31.9 20.9 0 10-9.2 17.8-26.8 17.8-9.2 0-18.7-2.3-24-5.6z"/>
					<path id="&lt;Compound Path&gt;" class="s1" d="m303 106.9c0-5.7 4.6-10.1 11.6-10.1 7 0 11.6 4.1 11.6 9.8 0 6-4.6 10.4-11.6 10.4-7 0-11.6-4.4-11.6-10.1zm2.1 16.1h19v54.2h-19z"/>
					<path id="&lt;Compound Path&gt;" class="s1" d="m427.8 146.2v31h-19v-27.9c0-7.8-3.2-11.1-8.2-11.1-5.5 0-9.5 3.7-9.5 12.1v26.9h-19v-27.9c0-7.8-3.1-11.1-8.2-11.1-5.6 0-9.6 3.7-9.6 12.1v26.9h-19v-54.2h18.1v5.7c4.1-4.4 9.8-6.6 16.2-6.6 7.4 0 13.7 2.7 17.5 8.5 4.3-5.4 11-8.5 18.8-8.5 12.6 0 21.9 7.3 21.9 24.1z"/>
					<path id="&lt;Compound Path&gt;" fill-rule="evenodd" class="s1" d="m499.5 150.1c0 17.2-11.9 28-26.6 28-6.3 0-11.4-1.9-15.1-5.7v24.2h-19v-73.6h18.1v5.4c3.6-4.3 8.9-6.3 16-6.3 14.7 0 26.6 10.8 26.6 28zm-19.2 0c0-8.2-5-12.9-11.4-12.9-6.4 0-11.4 4.7-11.4 12.9 0 8.2 5 12.9 11.4 12.9 6.4 0 11.4-4.7 11.4-12.9z"/>
					<path id="&lt;Compound Path&gt;" class="s1" d="m507.7 103h19v74.2h-19z"/>
					<path id="&lt;Compound Path&gt;" fill-rule="evenodd" class="s1" d="m593.1 154.9h-39.4c1.6 5.5 6.3 8.7 13.3 8.7 5.3 0 8.8-1.5 12.5-4.7l10 10.4c-5.2 5.8-12.8 8.8-23.1 8.8-19.3 0-31.8-11.9-31.8-28.1 0-16.3 12.7-27.9 29.8-27.9 16 0 29 10.2 29 28.1 0 1.4-0.2 3.2-0.3 4.7zm-39.7-10h22.2c-1-5.7-5.2-9.3-11.1-9.3-5.9 0-10 3.6-11.1 9.3z"/>
				</g>
			</g>
			<g id="&lt;Group&gt;">
				<g id="&lt;Group&gt;">
					<path id="&lt;Path&gt;" class="s0" d="m16.1 79.3l61.4-61.4c2.6-2.5 6.6-2.5 9.1 0l94.2 94.1-66.1 66c-2.5 2.5-6.6 2.5-9.1 0l-89.5-89.5c-2.6-2.6-2.6-6.6 0-9.2z"/>
				</g>
				<path id="&lt;Path&gt;" class="s2" d="m140.2 156.6l-16.4 16.4-102.7-102.7 16.4-16.4z"/>
				<path id="&lt;Path&gt;" class="s1" d="m73.4 77.7c-0.9 1-0.9 2.5 0.1 3.4 6.7 5.9 15.1 8.8 23.5 8.8 9.1 0 18.3-3.5 25.2-10.5l13-13 45.5 45.6 13.8-13.8c19.3-19.3 20.4-50.8 1.6-70.6-9.9-10.4-23.1-15.5-36.3-15.6-12.8 0.1-25.6 4.9-35.4 14.7z"/>
			</g>
		</g>
	</g>
</svg>